<?xml version="1.0" encoding="UTF-8"?>
<svg id="Layer_1" data-name="Layer 1" xmlns="http://www.w3.org/2000/svg" viewBox="0 0 56 56">
  <defs>
    <style>
      .cls-1 {
        fill: #fff;
      }

      .cls-2 {
        fill: #fcb595;
      }

      .cls-2, .cls-3, .cls-4, .cls-5 {
        isolation: isolate;
      }

      .cls-3 {
        fill: #54ace2;
      }

      .cls-4 {
        fill: #7cc3f7;
      }

      .cls-6 {
        fill: #e6e7e8;
        fill-rule: evenodd;
      }

      .cls-7 {
        fill: #f47920;
      }

      .cls-5 {
        fill: #f29a68;
      }

      .cls-8 {
        fill: #e56d1c;
      }

      .cls-9 {
        fill: #1268b3;
      }

      .cls-10 {
        fill: none;
      }
    </style>
  </defs>
  <rect class="cls-10" y="0" width="56" height="56" rx=".3" ry=".3"/>
  <g>
    <path class="cls-7" d="m7.83,25.55h40.34c.66,0,1.05.71.7,1.24l-6.7,10.17H10.95l-3.9-10.33c-.2-.53.2-1.09.78-1.09Z"/>
    <path class="cls-5" d="m10.67,25.55h28.98l-4.89-8.67c-.11-.19-.32-.31-.55-.31H14.03c-.27,0-.51.17-.59.42l-2.76,8.56Z"/>
    <path class="cls-2" d="m16.65,16.56h8l-2.58-5.78c-.06-.13-.23-.22-.42-.22h-4.57c-.24,0-.44.14-.44.32v5.68Z"/>
    <path class="cls-1" d="m15.43,25.55h19.47l-3.28-5.82c-.07-.13-.21-.21-.36-.21h-13.57c-.18,0-.34.11-.4.28l-1.86,5.75Z"/>
    <polygon class="cls-6" points="25.04 25.56 24 25.56 26.53 19.51 27.57 19.51 25.04 25.56"/>
    <polygon class="cls-6" points="23.11 25.56 22.06 25.56 24.59 19.51 25.64 19.51 23.11 25.56"/>
    <path class="cls-7" d="m17.09,10.56c-.24,0-.44.14-.44.32v5.68h1.37v-6h-.93Z"/>
    <polygon class="cls-8" points="9.2 32.31 10.96 36.97 42.17 36.97 45.24 32.31 9.2 32.31"/>
  </g>
  <path class="cls-9" d="m11.64,34c-4.91,0-6,2.91-7.64,2.91v4.17h48v-4.17h-1.09c-2.18,0-3.27-2.91-7.64-2.91s-7.09,2.91-8.73,2.91-3.27-2.91-7.64-2.91-4.91,2.91-7.64,2.91-2.73-2.91-7.64-2.91Z"/>
  <path class="cls-3" d="m11.64,37.3c-4.91,0-6,2.91-7.64,2.91v4.17h48v-4.17h-1.09c-2.18,0-3.27-2.91-7.64-2.91s-7.09,2.91-8.73,2.91-3.27-2.91-7.64-2.91-4.91,2.91-7.64,2.91-2.73-2.91-7.64-2.91Z"/>
  <path class="cls-4" d="m50.91,43.28c-2.18,0-3.27-2.91-7.64-2.91s-7.09,2.91-8.73,2.91-3.27-2.91-7.64-2.91-4.91,2.91-7.64,2.91-2.73-2.91-7.64-2.91-6,2.91-7.64,2.91v6.72h48v-6.72h-1.09Z"/>
  <circle class="cls-7" cx="18.88" cy="7.97" r="1.5"/>
  <circle class="cls-5" cx="19.98" cy="3.89" r="1"/>
  <circle class="cls-2" cx="17.38" cy="4.89" r=".9"/>
</svg>