<?xml version="1.0" encoding="UTF-8"?>
<svg id="Layer_1" data-name="Layer 1" xmlns="http://www.w3.org/2000/svg" viewBox="0 0 56 56">
  <defs>
    <style>
      .cls-1 {
        fill: #7cc3f7;
      }

      .cls-1, .cls-2, .cls-3, .cls-4, .cls-5 {
        isolation: isolate;
      }

      .cls-2 {
        fill: #1268b3;
      }

      .cls-6 {
        fill: #f47920;
      }

      .cls-3, .cls-4 {
        fill: #fff;
      }

      .cls-4 {
        stroke: #1268b3;
        stroke-width: .2px;
      }

      .cls-7, .cls-5 {
        fill: none;
      }

      .cls-5 {
        stroke: #217dc1;
        stroke-width: .4px;
      }
    </style>
  </defs>
  <rect class="cls-7" y=".14" width="56" height="56" rx=".3" ry=".3"/>
  <path class="cls-2" d="m48.18,49.7h-1.58v-21.02c0-.92-.9-1.67-2-1.67H9.51v-1.43l-2.24,1.85c-.41.31-.67.74-.67,1.24v21.66c0,.92.9,1.67,2,1.67h36c.62,0,1.17-.24,1.54-.61l2.04-1.69Z"/>
  <path class="cls-1" d="m10.59,25.35h36c1.1,0,2,.75,2,1.67v21.66c0,.92-.9,1.67-2,1.67H10.59c-1.1,0-2-.75-2-1.67v-21.66c0-.92.9-1.67,2-1.67Z"/>
  <path class="cls-1" d="m13.5,8.28l.9-.9c.08-.08.08-.19,0-.27-.08-.08-.19-.08-.27,0l-.98.98h-.68l.71-.71c.08-.08.08-.19,0-.27-.08-.08-.19-.08-.27,0l-.98.98h-1.49l1.87-1.87h1.39c.11,0,.19-.08.19-.19s-.08-.19-.19-.19h-1.28v-1.27c0-.11-.08-.19-.19-.19s-.19.08-.19.19v1.39l-1.87,1.87v-1.48l.98-.98c.08-.08.08-.19,0-.27-.08-.08-.19-.08-.27,0l-.71.71v-.68l.98-.98c.08-.08.08-.19,0-.27-.08-.08-.19-.08-.27,0l-.9.9-.9-.9c-.08-.08-.19-.08-.27,0-.08.08-.08.19,0,.27l.98.98v.68l-.71-.71c-.08-.08-.19-.08-.27,0-.08.08-.08.19,0,.27l.98.98v1.48l-1.87-1.87v-1.39c0-.11-.08-.19-.19-.19s-.19.08-.19.19v1.27h-1.28c-.11,0-.19.08-.19.19s.08.19.19.19h1.39l1.87,1.87h-1.49l-.98-.98c-.08-.08-.19-.08-.27,0-.08.08-.08.19,0,.27l.71.71h-.68l-.98-.98c-.08-.08-.19-.08-.27,0-.08.08-.08.19,0,.27l.9.9-.9.9c-.08.08-.08.19,0,.27.03.03.08.06.13.06s.1-.02.13-.06l.98-.98h.68l-.71.71c-.08.08-.08.19,0,.27.03.03.08.06.13.06s.1-.02.13-.06l.98-.98h1.49l-1.84,1.87h-1.39c-.11,0-.19.08-.19.19s.08.19.19.19h1.28v1.27c0,.11.08.19.19.19s.19-.08.19-.19v-1.39l1.87-1.87v1.48l-.98.98c-.08.08-.08.19,0,.27.03.03.08.06.13.06s.1-.02.13-.06l.71-.71v.68l-.98.98c-.08.08-.08.19,0,.27.03.03.08.06.13.06s.1-.02.13-.06l.9-.9.9.9s.08.06.13.06.1-.02.13-.06c.08-.08.08-.19,0-.27l-.98-.98v-.68l.71.71s.08.06.13.06.1-.02.13-.06c.08-.08.08-.19,0-.27l-.98-.98v-1.48l1.87,1.87v1.39c0,.11.08.19.19.19s.19-.08.19-.19v-1.27h1.28c.11,0,.19-.08.19-.19s-.08-.19-.19-.19h-1.39l-1.81-1.87h1.49l.98.98s.08.06.13.06.1-.02.13-.06c.08-.08.08-.19,0-.27l-.71-.71h.68l.98.98s.08.06.13.06.1-.02.13-.06c.08-.08.08-.19,0-.27l-.87-.9Z"/>
  <path class="cls-1" d="m43.79,11.15l.9-.9c.08-.08.08-.19,0-.27-.08-.08-.19-.08-.27,0l-.98.98h-.68l.71-.71c.08-.08.08-.19,0-.27-.08-.08-.19-.08-.27,0l-.98.98h-1.49l1.87-1.87h1.39c.11,0,.19-.08.19-.19s-.08-.19-.19-.19h-1.28v-1.27c0-.11-.08-.19-.19-.19s-.19.08-.19.19v1.39l-1.87,1.87v-1.48l.98-.98c.08-.08.08-.19,0-.27-.08-.08-.19-.08-.27,0l-.71.71v-.68l.98-.98c.08-.08.08-.19,0-.27-.08-.08-.19-.08-.27,0l-.9.9-.9-.9c-.08-.08-.19-.08-.27,0-.08.08-.08.19,0,.27l.98.98v.68l-.71-.71c-.08-.08-.19-.08-.27,0-.08.08-.08.19,0,.27l.98.98v1.48l-1.87-1.87v-1.39c0-.11-.08-.19-.19-.19s-.19.08-.19.19v1.27h-1.28c-.11,0-.19.08-.19.19s.08.19.19.19h1.39l1.87,1.87h-1.49l-.98-.98c-.08-.08-.19-.08-.27,0-.08.08-.08.19,0,.27l.71.71h-.68l-.98-.98c-.08-.08-.19-.08-.27,0-.08.08-.08.19,0,.27l.9.9-.9.9c-.08.08-.08.19,0,.27.03.03.08.06.13.06s.1-.02.13-.06l.98-.98h.68l-.71.71c-.08.08-.08.19,0,.27.03.03.08.06.13.06s.1-.02.13-.06l.98-.98h1.49l-1.84,1.87h-1.39c-.11,0-.19.08-.19.19s.08.19.19.19h1.28v1.27c0,.11.08.19.19.19s.19-.08.19-.19v-1.39l1.87-1.87v1.48l-.98.98c-.08.08-.08.19,0,.27.03.03.08.06.13.06s.1-.02.13-.06l.71-.71v.68l-.98.98c-.08.08-.08.19,0,.27.03.03.08.06.13.06s.1-.02.13-.06l.9-.9.9.9s.08.06.13.06.1-.02.13-.06c.08-.08.08-.19,0-.27l-.98-.98v-.68l.71.71s.08.06.13.06.1-.02.13-.06c.08-.08.08-.19,0-.27l-.98-.98v-1.48l1.87,1.87v1.39c0,.11.08.19.19.19s.19-.08.19-.19v-1.27h1.28c.11,0,.19-.08.19-.19s-.08-.19-.19-.19h-1.39l-1.81-1.87h1.49l.98.98s.08.06.13.06.1-.02.13-.06c.08-.08.08-.19,0-.27l-.71-.71h.68l.98.98s.08.06.13.06.1-.02.13-.06c.08-.08.08-.19,0-.27l-.87-.9Z"/>
  <path class="cls-6" d="m42.01,29.46h3.09c.57,0,1.03.45,1.03,1v3.29c0,.55-.46,1-1.03,1h-3.09c-.57,0-1.03-.45-1.03-1v-3.29c0-.55.46-1,1.03-1Z"/>
  <g>
    <path class="cls-3" d="m13.22,29.46h24.29c.75,0,1.35.51,1.35,1.14v14.83c0,.63-.6,1.14-1.35,1.14H13.22c-.75,0-1.35-.51-1.35-1.14v-14.83c0-.63.6-1.14,1.35-1.14Z"/>
    <line class="cls-5" x1="11.87" y1="32.48" x2="38.86" y2="32.48"/>
    <line class="cls-5" x1="11.87" y1="36.1" x2="38.86" y2="36.1"/>
    <line class="cls-5" x1="11.87" y1="39.72" x2="38.86" y2="39.72"/>
    <line class="cls-5" x1="11.87" y1="43.34" x2="38.86" y2="43.34"/>
  </g>
  <path class="cls-2" d="m31.02,18.25l1.81-1.81c.16-.16.16-.39,0-.55-.16-.16-.39-.16-.55,0l-1.97,1.97h-1.36l1.42-1.42c.16-.16.16-.39,0-.55-.16-.16-.39-.16-.55,0l-1.97,1.97h-2.97l3.75-3.74h2.78c.23,0,.39-.16.39-.39s-.16-.39-.39-.39h-2.55v-2.55c0-.23-.16-.39-.39-.39s-.39.16-.39.39v2.78l-3.75,3.74v-2.97l1.97-1.97c.16-.16.16-.39,0-.55-.16-.16-.39-.16-.55,0l-1.42,1.42v-1.36l1.97-1.97c.16-.16.16-.39,0-.55-.16-.16-.39-.16-.55,0l-1.81,1.81-1.81-1.81c-.16-.16-.39-.16-.55,0-.16.16-.16.39,0,.55l1.97,1.97v1.36l-1.42-1.42c-.16-.16-.39-.16-.55,0-.16.16-.16.39,0,.55l1.97,1.97v2.97l-3.75-3.74v-2.78c0-.23-.16-.39-.39-.39s-.39.16-.39.39v2.55h-2.55c-.23,0-.39.16-.39.39s.16.39.39.39h2.78l3.75,3.74h-2.97l-1.97-1.97c-.16-.16-.39-.16-.55,0-.16.16-.16.39,0,.55l1.42,1.42h-1.36l-1.97-1.97c-.16-.16-.39-.16-.55,0-.16.16-.16.39,0,.55l1.81,1.81-1.81,1.81c-.16.16-.16.39,0,.55.06.06.16.13.26.13s.19-.03.26-.13l1.97-1.97h1.36l-1.42,1.42c-.16.16-.16.39,0,.55.06.06.16.13.26.13s.19-.03.26-.13l1.97-1.97h2.97l-3.68,3.74h-2.78c-.23,0-.39.16-.39.39s.16.39.39.39h2.55v2.55c0,.23.16.39.39.39s.39-.16.39-.39v-2.78l3.75-3.74v2.97l-1.97,1.97c-.16.16-.16.39,0,.55.06.06.16.13.26.13s.19-.03.26-.13l1.42-1.42v1.36l-1.97,1.97c-.16.16-.16.39,0,.55.06.06.16.13.26.13s.19-.03.26-.13l1.81-1.81,1.81,1.81c.06.06.16.13.26.13s.19-.03.26-.13c.16-.16.16-.39,0-.55l-1.97-1.97v-1.36l1.42,1.42c.06.06.16.13.26.13s.19-.03.26-.13c.16-.16.16-.39,0-.55l-1.97-1.97v-2.97l3.75,3.74v2.78c0,.23.16.39.39.39s.39-.16.39-.39v-2.55h2.55c.23,0,.39-.16.39-.39s-.16-.39-.39-.39h-2.78l-3.62-3.74h2.97l1.97,1.97c.06.06.16.13.26.13s.19-.03.26-.13c.16-.16.16-.39,0-.55l-1.42-1.42h1.36l1.97,1.97c.06.06.16.13.26.13s.19-.03.26-.13c.16-.16.16-.39,0-.55l-1.74-1.81Z"/>
  <circle class="cls-4" cx="18.39" cy="5.36" r="1"/>
  <circle class="cls-6" cx="9.97" cy="18.25" r="1.5"/>
  <circle class="cls-1" cx="31.66" cy="6.36" r="1.5"/>
  <circle class="cls-6" cx="43.19" cy="20.23" r="1"/>
  <circle class="cls-4" cx="37.88" cy="24.52" r="2.5"/>
</svg>