<svg width="38" height="32" viewBox="0 0 38 32" fill="none" xmlns="http://www.w3.org/2000/svg">
<rect x="0.5" y="0.5" width="37" height="31" rx="15.5" fill="white"/>
<path d="M10.2529 21.6897C10.0843 21.5 10 21.2628 10 20.9779C10 20.6931 10.0843 20.4476 10.2529 20.2414L15.7701 13.9828C15.8621 13.8966 15.9617 13.8276 16.069 13.7759C16.1762 13.7241 16.2912 13.6983 16.4138 13.6983C16.5364 13.6983 16.655 13.7241 16.7697 13.7759C16.8843 13.8276 16.9802 13.8966 17.0575 13.9828L20.092 17.3966L24.8736 12.069H23.4023C23.1418 12.069 22.9232 11.9697 22.7467 11.771C22.5701 11.5724 22.4821 11.3269 22.4828 11.0345C22.4828 10.7414 22.571 10.4955 22.7476 10.2969C22.9241 10.0983 23.1424 9.99931 23.4023 10H27.0805C27.341 10 27.5595 10.0993 27.7361 10.2979C27.9126 10.4966 28.0006 10.7421 28 11.0345V15.1724C28 15.4655 27.9117 15.7114 27.7352 15.91C27.5586 16.1086 27.3404 16.2076 27.0805 16.2069C26.8199 16.2069 26.6014 16.1076 26.4248 15.909C26.2483 15.7103 26.1603 15.4648 26.1609 15.1724V13.5172L20.7356 19.6207C20.6437 19.7241 20.5441 19.7976 20.4368 19.841C20.3295 19.8845 20.2146 19.9059 20.092 19.9052C19.9693 19.9052 19.8544 19.8838 19.7471 19.841C19.6398 19.7983 19.5402 19.7248 19.4483 19.6207L16.4138 16.2069L11.5172 21.7155C11.3487 21.9052 11.1418 22 10.8966 22C10.6513 22 10.4368 21.8966 10.2529 21.6897Z" fill="#1268B3"/>
<rect x="0.5" y="0.5" width="37" height="31" rx="15.5" stroke="#C7DDF0"/>
</svg>
