<?xml version="1.0" encoding="UTF-8"?>
<svg id="Layer_1" data-name="Layer 1" xmlns="http://www.w3.org/2000/svg" viewBox="0 0 56 56">
  <defs>
    <style>
      .cls-1 {
        fill: #54ace2;
      }

      .cls-1, .cls-2, .cls-3, .cls-4, .cls-5 {
        isolation: isolate;
      }

      .cls-2 {
        fill: #7cc3f7;
      }

      .cls-3 {
        opacity: .3;
      }

      .cls-3, .cls-5 {
        fill: #f29a68;
      }

      .cls-4 {
        fill: #1268b3;
      }

      .cls-6 {
        fill: #f47920;
      }

      .cls-7 {
        fill: none;
      }
    </style>
  </defs>
  <rect class="cls-7" y="0" width="56" height="56" rx=".3" ry=".3"/>
  <rect class="cls-7" y="0" width="56" height="56" rx=".3" ry=".3"/>
  <circle class="cls-3" cx="28" cy="28" r="24"/>
  <g>
    <path class="cls-4" d="m11,19.18v17.19c0,.13.07.26.18.33l16.62,10.25c.12.07.27.07.39,0l16.62-10.25c.11-.07.18-.19.18-.33v-17.19c0-.14-.07-.26-.19-.33l-16.62-9.8c-.12-.07-.26-.07-.38,0l-16.62,9.8c-.12.07-.19.19-.19.33Z"/>
    <path class="cls-2" d="m11.14,18.87l16.67-9.81c.12-.07.26-.07.38,0l16.67,9.81c.06.04.06.13,0,.16l-16.67,9.81c-.12.07-.26.07-.38,0l-16.67-9.81c-.06-.04-.06-.13,0-.16Z"/>
    <path class="cls-5" d="m17.61,15.04l4.72-2.76,17,10.01-4.72,2.76-17-10.01Z"/>
    <path class="cls-1" d="m45,19.11v17.25c0,.13-.07.26-.18.33l-16.68,10.28c-.06.04-.14,0-.14-.08v-17.89s.02-.07.05-.08l16.81-9.9c.06-.04.14,0,.14.08Z"/>
    <path class="cls-6" d="m39.33,22.28l-4.72,2.77v17.93l4.72-2.91v-17.79Z"/>
  </g>
</svg>