<svg width="26" height="26" viewBox="0 0 26 26" fill="none" xmlns="http://www.w3.org/2000/svg">
<path d="M18.4167 22.1674H4.54468C3.44011 22.1674 2.54468 21.272 2.54468 20.1674V5.8324C2.54468 4.72783 3.44011 3.8324 4.54468 3.8324H15.8003C16.9048 3.8324 17.8003 4.72783 17.8003 5.8324V8.67374" stroke="#13204C" stroke-width="1.3" stroke-linecap="round" stroke-linejoin="round"/>
<path d="M6.98877 15.7969H13.3571" stroke="#13204C" stroke-width="1.3" stroke-linecap="round"/>
<path d="M8.75659 11.621H11.5904" stroke="#13204C" stroke-width="1.3" stroke-linecap="round"/>
<path d="M6.98828 3.8324V6.45727C6.98828 6.74642 7.22269 6.98083 7.51184 6.98083H12.8333C13.1225 6.98083 13.3569 6.74642 13.3569 6.45727V3.8324" stroke="#13204C" stroke-width="1.3" stroke-linecap="round" stroke-linejoin="round"/>
<path d="M8.56006 3.83249V2.92158C8.56006 2.03095 9.28205 1.30896 10.1727 1.30896V1.30896C11.0633 1.30896 11.7853 2.03095 11.7853 2.92158V3.83249" stroke="#13204C" stroke-width="1.3" stroke-linecap="round" stroke-linejoin="round"/>
<circle cx="18.4062" cy="17.0114" r="5.04924" stroke="#13204C" stroke-width="1.3" stroke-linecap="round" stroke-linejoin="round"/>
<path d="M20.5996 17.3483L18.5418 19.2478C18.4652 19.3185 18.3471 19.3185 18.2705 19.2478L16.2127 17.3483" stroke="#13204C" stroke-width="1.3" stroke-linecap="round"/>
<path d="M18.4065 19.2048L18.4065 14.6492" stroke="#13204C" stroke-width="1.3" stroke-linecap="round"/>
</svg>
