<svg width="24" height="24" viewBox="0 0 24 24" fill="none" xmlns="http://www.w3.org/2000/svg">
<rect width="24" height="24" fill="white"/>
<path d="M17.0411 4.70227H6.95898C5.85441 4.70227 4.95898 5.5977 4.95898 6.70227V19.6269C4.95898 20.7315 5.85441 21.6269 6.95898 21.6269H17.0411C18.1456 21.6269 19.0411 20.7315 19.0411 19.6269V6.70227C19.0411 5.5977 18.1456 4.70227 17.0411 4.70227Z" stroke="#13204C" stroke-width="1.3" stroke-linecap="round" stroke-linejoin="round"/>
<path d="M10.5116 4.70233V3.86149C10.5116 3.03938 11.1781 2.37292 12.0002 2.37292V2.37292C12.8223 2.37292 13.4887 3.03938 13.4887 3.86149V4.70233" stroke="#13204C" stroke-width="1.3" stroke-linecap="round" stroke-linejoin="round"/>
<path d="M9.06116 15.7465H14.9396" stroke="#13204C" stroke-width="1.3" stroke-linecap="round"/>
<path d="M10.693 11.8917H13.3088" stroke="#13204C" stroke-width="1.3" stroke-linecap="round"/>
<path d="M9.06079 4.70227V7.08495C9.06079 7.37411 9.2952 7.60851 9.58435 7.60851H14.416C14.7051 7.60851 14.9395 7.37411 14.9395 7.08495V4.70227" stroke="#13204C" stroke-width="1.3" stroke-linecap="round" stroke-linejoin="round"/>
</svg>
