<svg width="26" height="26" viewBox="0 0 26 26" fill="none" xmlns="http://www.w3.org/2000/svg">
<rect width="26" height="26" fill="white"/>
<path d="M3.49341 9.18448V6.17361C3.49341 4.73767 4.65747 3.57361 6.09341 3.57361H10.5817C11.2993 3.57361 11.9849 3.87017 12.4763 4.39306L13.7119 5.70777H21.7029C23.1389 5.70777 24.3029 6.87183 24.3029 8.30777V18.7929C24.3029 20.2289 23.1389 21.3929 21.7029 21.3929H11.9456M19.4476 5.79263V18.8698C19.4476 20.2632 20.5772 21.3928 21.9707 21.3928" stroke="#13204C" stroke-width="1.3" stroke-linecap="round" stroke-linejoin="round"/>
<ellipse cx="7.54702" cy="17.364" rx="5.85" ry="5.85" stroke="#13204C" stroke-width="1.3"/>
<ellipse rx="1.07558" ry="1.07558" transform="matrix(1 0 0 -1 7.54702 15.0857)" fill="#13204C"/>
<path d="M7.54688 17.6664L7.54694 19.2479" stroke="#13204C" stroke-width="1.3" stroke-linecap="round"/>
</svg>
