<svg width="20" height="20" viewBox="0 0 20 20" fill="none" xmlns="http://www.w3.org/2000/svg">
<path d="M10.077 3.8136H4C2.89543 3.8136 2 4.70903 2 5.8136V16.1737C2 17.2783 2.89543 18.1737 4 18.1737H14.3589C15.4635 18.1737 16.3589 17.2783 16.3589 16.1737V10.0961" stroke="#13204C" stroke-width="1.3" stroke-linecap="round" stroke-linejoin="round"/>
<path d="M14.5885 3.04537C15.0705 2.56342 15.8519 2.56342 16.3339 3.04537L17.1272 3.83863C17.6091 4.32057 17.6091 5.10196 17.1272 5.5839L9.64297 13.0677C9.29839 13.4123 8.85952 13.6471 8.38167 13.7427L6.84882 14.0492C6.41704 14.1356 6.03635 13.7549 6.1227 13.3232L6.42927 11.7904C6.52484 11.3126 6.75972 10.8737 7.1043 10.5292L14.5885 3.04537Z" stroke="#13204C" stroke-width="1.3" stroke-linejoin="round"/>
<path d="M16.096 6.61495L13.5574 4.07642" stroke="#13204C" stroke-width="1.3" stroke-linecap="round" stroke-linejoin="round"/>
</svg>
