<svg width="24" height="24" viewBox="0 0 24 24" fill="none" xmlns="http://www.w3.org/2000/svg">
<rect width="24" height="24" fill="white"/>
<path d="M12.8227 7.92991C13.8392 7.24475 15.1988 8.0297 15.1137 9.25259C15.072 9.85078 15.3974 10.4144 15.9363 10.6775C17.0379 11.2152 17.0379 12.7851 15.9363 13.3228C15.3974 13.5858 15.072 14.1495 15.1137 14.7477C15.1988 15.9706 13.8392 16.7555 12.8227 16.0704C12.3255 15.7352 11.6746 15.7352 11.1774 16.0704C10.1609 16.7555 8.80135 15.9706 8.88648 14.7477C8.92812 14.1495 8.6027 13.5858 8.06382 13.3228C6.96221 12.7851 6.96221 11.2152 8.06382 10.6775C8.6027 10.4144 8.92812 9.85078 8.88648 9.25259C8.80135 8.0297 10.1609 7.24475 11.1774 7.92991C11.6746 8.26507 12.3255 8.26507 12.8227 7.92991Z" stroke="#13204C" stroke-width="1.3" stroke-miterlimit="10" stroke-linecap="round" stroke-linejoin="round"/>
<path d="M14.3107 20.6234C9.53059 21.9042 4.61727 19.0675 3.33646 14.2874C2.62882 11.6465 3.17803 8.96485 4.61744 6.87764M9.67242 3.3132C14.4525 2.03239 19.3658 4.86909 20.6466 9.64916C21.4397 12.6088 20.6542 15.6195 18.8063 17.7875" stroke="#13204C" stroke-width="1.3" stroke-linecap="round" stroke-linejoin="round"/>
<path d="M13.9416 22.8457L15.392 20.3336L12.8798 18.8832" stroke="#13204C" stroke-width="1.3" stroke-linecap="round" stroke-linejoin="round"/>
<path d="M10.2398 1.10572L8.78942 3.61787L11.3016 5.06826" stroke="#13204C" stroke-width="1.3" stroke-linecap="round" stroke-linejoin="round"/>
<ellipse cx="12" cy="12.0003" rx="1.37382" ry="1.37382" fill="#13204C"/>
</svg>
