<svg width="26" height="26" viewBox="0 0 26 26" fill="none" xmlns="http://www.w3.org/2000/svg">
<rect width="26" height="26" fill="white"/>
<path d="M8.04769 5.74112L5.85787 3.55131C7.20761 3.06734 8.775 3.3659 9.85619 4.4471C10.7869 5.37784 11.1377 6.66903 10.9085 7.8714L19.2434 16.2063C20.0821 17.045 20.0821 18.4048 19.2434 19.2435C18.4047 20.0822 17.0449 20.0822 16.2062 19.2435L7.87124 10.9085C6.66887 11.1377 5.3778 10.787 4.44706 9.85623C3.36586 8.77504 3.0673 7.20765 3.55127 5.85791L5.74108 8.04773C6.02049 8.32714 6.47351 8.3272 6.75298 8.04773L8.04769 6.75303C8.32716 6.47355 8.3271 6.02053 8.04769 5.74112Z" stroke="#13204C" stroke-width="1.3" stroke-miterlimit="10" stroke-linecap="round" stroke-linejoin="round"/>
<path d="M9.76284 13.0114L5.08083 17.5792C4.41066 18.2331 4.40403 19.3085 5.06608 19.9705V19.9705C5.72181 20.6263 6.78477 20.6269 7.44132 19.972L10.2309 17.1894" stroke="#13204C" stroke-width="1.3" stroke-miterlimit="10" stroke-linecap="round" stroke-linejoin="round"/>
<path d="M14.2146 10.8082L18.3801 6.67985" stroke="#13204C" stroke-width="1.3" stroke-miterlimit="10" stroke-linecap="round" stroke-linejoin="round"/>
<path d="M17.2795 5.98803L17.1003 7.92481L18.9775 7.68599L20.8918 5.01099L19.903 4.02212L17.2795 5.98803Z" fill="#13204C"/>
</svg>
