<svg width="18" height="19" viewBox="0 0 18 19" fill="none" xmlns="http://www.w3.org/2000/svg">
<rect x="13.3926" y="5.47266" width="3.36842" height="9.5" rx="1" stroke="white" stroke-width="1.3" stroke-linecap="round" stroke-linejoin="round"/>
<path d="M7.49756 2.5C7.49756 1.94771 7.94527 1.5 8.49756 1.5H9.86598C10.4183 1.5 10.866 1.94772 10.866 2.5V13.9737C10.866 14.526 10.4183 14.9737 9.86598 14.9737H8.49756C7.94527 14.9737 7.49756 14.526 7.49756 13.9737V2.5Z" stroke="white" stroke-width="1.3" stroke-linecap="round" stroke-linejoin="round"/>
<path d="M1.60303 9.39453C1.60303 8.84225 2.05074 8.39453 2.60303 8.39453H3.97145C4.52373 8.39453 4.97145 8.84225 4.97145 9.39453V13.9735C4.97145 14.5258 4.52373 14.9735 3.97145 14.9735H2.60303C2.05074 14.9735 1.60303 14.5258 1.60303 13.9735V9.39453Z" stroke="white" stroke-width="1.3" stroke-linecap="round" stroke-linejoin="round"/>
<path d="M1.60303 17.5H16.7609" stroke="white" stroke-width="1.3" stroke-linecap="round"/>
</svg>
