<svg width="26" height="26" viewBox="0 0 26 26" fill="none" xmlns="http://www.w3.org/2000/svg">
<path d="M14.7963 4.1116C17.016 2.61537 19.985 4.32951 19.7991 6.99998C19.7082 8.30629 20.4188 9.53716 21.5956 10.1116C24.0012 11.2858 24.0012 14.7141 21.5956 15.8883C20.4188 16.4627 19.7082 17.6936 19.7991 18.9999C19.985 21.6704 17.016 23.3845 14.7963 21.8883C13.7105 21.1564 12.2892 21.1564 11.2033 21.8883C8.98359 23.3845 6.01462 21.6704 6.20051 18.9999C6.29144 17.6936 5.5808 16.4627 4.40404 15.8883C1.9984 14.7141 1.9984 11.2858 4.40404 10.1116C5.5808 9.53716 6.29144 8.30629 6.20051 6.99998C6.01462 4.32951 8.98359 2.61537 11.2033 4.1116C12.2892 4.8435 13.7105 4.8435 14.7963 4.1116Z" stroke="#13204C" stroke-width="1.3" stroke-miterlimit="10" stroke-linecap="round" stroke-linejoin="round"/>
<circle cx="12.9997" cy="13" r="3.86864" stroke="#13204C" stroke-width="1.3" stroke-linecap="round" stroke-linejoin="round"/>
</svg>
