<svg width="114" height="87" viewBox="0 0 114 87" fill="none" xmlns="http://www.w3.org/2000/svg">
<g opacity="0.4">
<mask id="mask0_156_535" style="mask-type:alpha" maskUnits="userSpaceOnUse" x="0" y="0" width="114" height="87">
<rect width="114" height="87" fill="#D9D9D9"/>
</mask>
<g mask="url(#mask0_156_535)">
<path opacity="0.7" d="M73.1826 18.9449L81.9205 23.6432L90.5784 28.4727L90.6583 38.0005L90.5784 47.5283L81.9205 52.3578L73.1826 57.0561L64.4448 52.3578L55.7868 47.5283L55.707 38.0005L55.7868 28.4727L64.4448 23.6432L73.1826 18.9449Z" fill="#EAC4EC"/>
<path opacity="0.7" d="M18.0869 -11L26.8248 -6.3017L35.4827 -1.47221L35.5626 8.05558L35.4827 17.5834L26.8248 22.4129L18.0869 27.1112L9.3491 22.4129L0.691111 17.5834L0.611273 8.05558L0.691111 -1.47221L9.3491 -6.3017L18.0869 -11Z" fill="#EAC4EC"/>
<path opacity="0.4" d="M109.913 18.9449L118.651 23.6432L127.309 28.4727L127.389 38.0005L127.309 47.5283L118.651 52.3578L109.913 57.0561L101.175 52.3578L92.5172 47.5283L92.4374 38.0005L92.5172 28.4727L101.175 23.6432L109.913 18.9449Z" fill="#EAC4EC"/>
<path opacity="0.4" d="M36.4522 18.9449L45.19 23.6432L53.848 28.4727L53.9278 38.0005L53.848 47.5283L45.19 52.3578L36.4522 57.0561L27.7143 52.3578L19.0563 47.5283L18.9765 38.0005L19.0563 28.4727L27.7143 23.6432L36.4522 18.9449Z" fill="#EAC4EC"/>
<path opacity="0.7" d="M54.8174 48.8889L63.5552 53.5872L72.2132 58.4166L72.293 67.9444L72.2132 77.4722L63.5552 82.3017L54.8174 87L46.0796 82.3017L37.4216 77.4722L37.3417 67.9444L37.4216 58.4166L46.0796 53.5872L54.8174 48.8889Z" fill="#EAC4EC"/>
<path opacity="0.4" d="M54.8174 -11L63.5552 -6.3017L72.2132 -1.47221L72.293 8.05558L72.2132 17.5834L63.5552 22.4129L54.8174 27.1112L46.0796 22.4129L37.4216 17.5834L37.3417 8.05558L37.4216 -1.47221L46.0796 -6.3017L54.8174 -11Z" fill="#EAC4EC"/>
<path opacity="0.4" d="M91.5478 48.8889L100.286 53.5872L108.944 58.4166L109.023 67.9444L108.944 77.4722L100.286 82.3017L91.5478 87L82.8099 82.3017L74.152 77.4722L74.0721 67.9444L74.152 58.4166L82.8099 53.5872L91.5478 48.8889Z" fill="#EAC4EC"/>
</g>
</g>
</svg>
