<svg width="24" height="24" viewBox="0 0 24 24" fill="none" xmlns="http://www.w3.org/2000/svg">
<rect width="24" height="24" fill="white"/>
<path d="M13.4209 19.3284L5.29346 19.3284C4.18889 19.3284 3.29346 18.433 3.29346 17.3284L3.29346 4.32105C3.29346 3.21648 4.18889 2.32104 5.29346 2.32104H12.0943C12.6166 2.32104 13.1181 2.52535 13.4918 2.89028L17.6909 6.99176C18.0762 7.36809 18.2935 7.88392 18.2935 8.42252L18.2935 10.7007" stroke="#13204C" stroke-width="1.3" stroke-linecap="round"/>
<circle cx="16.6056" cy="17.2754" r="3.77825" stroke="#13204C" stroke-width="1.3"/>
<path d="M19.1792 20.1353L20.7069 21.679" stroke="#13204C" stroke-width="1.3" stroke-linecap="round"/>
<path d="M11.6694 2.58093V7.11358C11.6694 7.66587 12.1171 8.11358 12.6694 8.11358H17.6686" stroke="#13204C" stroke-width="1.3" stroke-linecap="round"/>
<path d="M7.6062 15.0933H13.23" stroke="#13204C" stroke-width="1.3" stroke-linecap="round"/>
<path d="M9.16724 11.8811H11.6697" stroke="#13204C" stroke-width="1.3" stroke-linecap="round"/>
</svg>
