<svg width="21" height="20" viewBox="0 0 21 20" fill="none" xmlns="http://www.w3.org/2000/svg">
<path fill-rule="evenodd" clip-rule="evenodd" d="M20.0999 10C20.0999 15.3019 15.8018 19.6 10.4999 19.6C5.19797 19.6 0.899902 15.3019 0.899902 10C0.899902 4.69807 5.19797 0.400002 10.4999 0.400002C15.8018 0.400002 20.0999 4.69807 20.0999 10ZM10.4999 6.4C10.0573 6.4 9.66902 6.63906 9.45972 7.00087C9.12787 7.57455 8.3938 7.77058 7.82013 7.43873C7.24645 7.10688 7.05042 6.3728 7.38227 5.79913C8.00291 4.72622 9.1659 4 10.4999 4C12.4881 4 14.0999 5.61178 14.0999 7.6C14.0999 9.16747 13.0982 10.501 11.6999 10.9952V11.2C11.6999 11.8627 11.1627 12.4 10.4999 12.4C9.83718 12.4 9.29992 11.8627 9.29992 11.2V10C9.29992 9.33726 9.83718 8.8 10.4999 8.8C11.1627 8.8 11.6999 8.26274 11.6999 7.6C11.6999 6.93726 11.1627 6.4 10.4999 6.4ZM10.4999 16C11.1626 16 11.6999 15.4627 11.6999 14.8C11.6999 14.1373 11.1626 13.6 10.4999 13.6C9.83716 13.6 9.2999 14.1373 9.2999 14.8C9.2999 15.4627 9.83716 16 10.4999 16Z" fill="#F6F6F6"/>
</svg>
