<svg width="20" height="20" viewBox="0 0 20 20" fill="none" xmlns="http://www.w3.org/2000/svg">
<path d="M13.041 2H3.99712C2.89256 2 2 2.89543 2 4V16C2 17.1046 2.89543 18 4 18H16C17.1046 18 18 17.1046 18 16V7.70156C18 7.24742 17.8454 6.8068 17.5617 6.45217L14.6005 2.75061C14.2209 2.27618 13.6486 2 13.041 2Z" stroke="#13204C" stroke-width="1.3"/>
<path d="M7.25708 13.8547H13.1356" stroke="#13204C" stroke-width="1.3" stroke-linecap="round"/>
<path d="M8.88892 10H11.5047" stroke="#13204C" stroke-width="1.3" stroke-linecap="round"/>
<path d="M5.50476 2V4.93834C5.50476 5.49063 5.95248 5.93834 6.50476 5.93834H10.5048C11.057 5.93834 11.5048 5.49063 11.5048 4.93834V2" stroke="#13204C" stroke-width="1.3"/>
</svg>
