<svg width="26" height="27" viewBox="0 0 26 27" fill="none" xmlns="http://www.w3.org/2000/svg">
<path d="M7.93995 16.7121L7.93994 11.1615C7.93994 10.6092 8.38766 10.1615 8.93994 10.1615H11.1707C11.5056 10.1615 11.8183 10.3292 12.0036 10.6081L12.26 10.994C12.4453 11.273 12.758 11.4406 13.0929 11.4406H15.7576C16.3099 11.4406 16.7576 11.8883 16.7576 12.4406V16.7121C16.7576 17.2644 16.3099 17.7121 15.7576 17.7121H8.93995C8.38766 17.7121 7.93995 17.2644 7.93995 16.7121Z" stroke="#13204C" stroke-width="1.3" stroke-linecap="round" stroke-linejoin="round"/>
<path d="M14.8518 23.3212C9.67338 24.7088 4.35062 21.6357 2.96307 16.4573C2.19646 13.5963 2.79144 10.6912 4.3508 8.43003M9.82702 4.56855C15.0054 3.181 20.3282 6.2541 21.7157 11.4325C22.5749 14.6388 21.7239 17.9004 19.722 20.249" stroke="#13204C" stroke-width="1.3" stroke-linecap="round" stroke-linejoin="round"/>
<path d="M14.4518 25.7288L16.023 23.0073L13.3015 21.4361" stroke="#13204C" stroke-width="1.3" stroke-linecap="round" stroke-linejoin="round"/>
<path d="M10.4415 2.1772L8.87029 4.89869L11.5918 6.46995" stroke="#13204C" stroke-width="1.3" stroke-linecap="round" stroke-linejoin="round"/>
</svg>
