<svg width="24" height="24" viewBox="0 0 24 24" fill="none" xmlns="http://www.w3.org/2000/svg">
<rect width="24" height="24" fill="white"/>
<path d="M11.5822 17.2942C10.7017 16.7007 9.54926 16.7007 8.66879 17.2942C6.86884 18.5074 4.46137 17.1175 4.61211 14.9521C4.68584 13.8928 4.1096 12.8947 3.15539 12.4289C1.20471 11.4768 1.20471 8.69686 3.15539 7.7447C4.1096 7.27893 4.68584 6.28084 4.61211 5.22159C4.46137 3.05617 6.86884 1.66621 8.66879 2.87946C9.54926 3.47295 10.7017 3.47295 11.5822 2.87946C13.3822 1.66621 15.7896 3.05617 15.6389 5.22159C15.5652 6.28084 16.1414 7.27893 17.0956 7.7447" stroke="#13204C" stroke-width="1.3" stroke-miterlimit="10" stroke-linecap="round" stroke-linejoin="round"/>
<circle cx="16.3275" cy="16.171" r="4.66" stroke="#13204C" stroke-width="1.3"/>
<path d="M16.3271 14.2346L16.3271 18.1072" stroke="#13204C" stroke-width="1.3" stroke-linecap="round"/>
<path d="M18.2637 16.1709L14.3911 16.1709" stroke="#13204C" stroke-width="1.3" stroke-linecap="round"/>
<ellipse cx="10.1257" cy="10.0869" rx="2.94769" ry="2.94769" stroke="#13204C" stroke-width="1.3" stroke-linecap="round" stroke-linejoin="round"/>
</svg>
