<svg width="26" height="26" viewBox="0 0 26 26" fill="none" xmlns="http://www.w3.org/2000/svg">
<rect width="26" height="26" fill="white"/>
<path d="M10.7287 8.19203V14.8194C10.7287 14.8781 10.6695 14.9182 10.6151 14.8964L7.57463 13.6825C6.58811 13.2886 5.49379 13.9252 5.34864 14.9775C5.27768 15.492 5.45534 16.0096 5.82731 16.372L7.63422 18.1326C7.64446 18.1426 7.65304 18.1535 7.66025 18.1658C8.17273 19.0434 9.06396 20.3392 9.8791 21.4811C10.7368 22.6827 12.1664 23.329 13.6387 23.2213L16.3725 23.0213C17.8558 22.9127 19.232 22.0542 19.5469 20.6006C19.8459 19.2204 19.8996 17.7425 19.8382 16.4408C19.7549 14.6764 18.3459 13.3451 16.6056 13.0424L13.9402 12.5789C13.9116 12.5739 13.8907 12.5491 13.8907 12.5201V8.19203C13.8907 7.31886 13.1829 6.61102 12.3097 6.61102C11.4366 6.61102 10.7287 7.31886 10.7287 8.19203Z" stroke="#13204C" stroke-width="1.40833" stroke-miterlimit="10" stroke-linecap="round" stroke-linejoin="round"/>
<path d="M10.5996 9.52931H5.3527C4.15608 9.52931 3.18604 8.55926 3.18604 7.36265V4.73881C3.18604 3.54219 4.15608 2.57214 5.3527 2.57214H19.5861C20.7827 2.57214 21.7527 3.54219 21.7527 4.73881V7.36265C21.7527 8.55926 20.7827 9.52931 19.5861 9.52931H17.104" stroke="#13204C" stroke-width="1.40833" stroke-miterlimit="10" stroke-linecap="round" stroke-linejoin="round"/>
</svg>
