<svg width="26" height="26" viewBox="0 0 26 26" fill="none" xmlns="http://www.w3.org/2000/svg">
<rect width="26" height="26" fill="white"/>
<path d="M6.48123 12.3H4.29525C3.2898 12.3 2.47473 13.1151 2.47473 14.1205V18.2303C2.47473 19.4796 3.48749 20.4924 4.73681 20.4924V20.4924C5.98612 20.4924 6.99889 19.4796 6.99889 18.2303V11.5793V3.74959C6.99889 3.15128 7.48392 2.66626 8.08222 2.66626H20.9118C21.5101 2.66626 21.9952 3.15128 21.9952 3.74959V10.4187M4.11585 20.4924H13.5361" stroke="#13204C" stroke-width="1.40833" stroke-miterlimit="10" stroke-linecap="round" stroke-linejoin="round"/>
<path d="M11.6139 10.3451H17.7064" stroke="#13204C" stroke-width="1.40833" stroke-linecap="round"/>
<path d="M13.3051 6.86523H16.0161" stroke="#13204C" stroke-width="1.40833" stroke-linecap="round"/>
<circle cx="18.477" cy="18.2855" r="5.04833" stroke="#13204C" stroke-width="1.40833"/>
<path d="M18.4768 16.1879L18.4768 20.3832" stroke="#13204C" stroke-width="1.40833" stroke-linecap="round"/>
<path d="M20.5747 18.2855L16.3794 18.2855" stroke="#13204C" stroke-width="1.40833" stroke-linecap="round"/>
</svg>
