<?xml version="1.0" encoding="UTF-8"?>
<svg id="Layer_1" data-name="Layer 1" xmlns="http://www.w3.org/2000/svg" viewBox="0 0 56 56">
  <defs>
    <style>
      .cls-1 {
        fill: #f29a68;
      }

      .cls-2, .cls-3, .cls-4, .cls-5 {
        isolation: isolate;
      }

      .cls-3 {
        fill: #7cc3f7;
      }

      .cls-6 {
        fill: #d36318;
      }

      .cls-7 {
        fill: #f47920;
      }

      .cls-4 {
        fill: #fff;
      }

      .cls-5 {
        fill: #9fd5f7;
      }

      .cls-8 {
        fill: none;
      }
    </style>
  </defs>
  <rect class="cls-8" y="0" width="56" height="56" rx=".3" ry=".3"/>
  <g>
    <path class="cls-6" d="m33.51,14.5c-.49,2.48.64,4.6.7,5.11h-4.21c.03-1.03.2-3.94,1.53-6.74,1.08-2.26,2.98-3.17,4.08-3.47-.35.64-1.62,2.63-2.11,5.11Z"/>
    <path class="cls-6" d="m20.87,15.75c0,2.32-1.17,3.65-1.17,3.85h5.39c-.04-.93,0-2.64-.94-4.74-1.05-2.37-3.75-4.34-4.68-4.84.34.63,1.4,3.91,1.4,5.73Z"/>
    <path class="cls-6" d="m26.75,11.52c.54,3.69-.09,6.87-.09,8.08h4.04c-.03-1.54.09-5.09-.97-8.23-1.44-4.29-3.89-7.57-4.65-7.73.26,1.04,1.12,4.2,1.67,7.88Z"/>
  </g>
  <g>
    <path class="cls-7" d="m38.99,19.11c.3,1.82-.4,3.37-.44,3.75h2.62c-.02-.76-.12-2.89-.95-4.94-.67-1.66-1.85-2.32-2.54-2.55.22.47,1,1.93,1.31,3.75Z"/>
    <path class="cls-7" d="m45.09,20.03c0,1.7.73,2.68.73,2.82h-3.34c.02-.68,0-1.94.58-3.47.65-1.74,2.33-3.19,2.91-3.55-.21.46-.87,2.87-.87,4.2Z"/>
    <path class="cls-7" d="m43.19,16.93c-.34,2.7.05,5.04.05,5.92h-2.51c.02-1.13-.05-3.73.6-6.03.89-3.14,2.41-5.55,2.89-5.67-.16.76-.7,3.08-1.04,5.78Z"/>
  </g>
  <path class="cls-3" d="m8.05,22.02c0-.4.12-.82.56-1.25.46-.45,1.27-.92,2.71-1.35,2.87-.86,8-1.47,17.01-1.47,6,0,11.96,1.47,16.4,3.98,4.45,2.52,7.27,6.01,7.27,10.01s-3.02,6.96-7.76,8.99c-4.72,2.03-10.99,3.01-17.09,3.01s-11.97-.72-16.27-2.24c-4.35-1.54-6.88-3.79-6.88-6.71,0-1.52.46-2.59,1.12-3.38.68-.81,1.6-1.36,2.57-1.82.47-.22.94-.41,1.4-.6l.04-.02c.46-.19.92-.37,1.31-.57.74-.37,1.53-.91,1.53-1.86,0-.72-.34-1.25-.78-1.66-.37-.35-.85-.63-1.29-.89-.05-.03-.1-.06-.14-.09-1.01-.61-1.71-1.13-1.71-2.09Z"/>
  <path class="cls-5" d="m15.1,23.11c0-.31.09-.63.42-.95.35-.34.97-.7,2.07-1.03,2.19-.65,6.12-1.12,13.01-1.12,4.59,0,9.14,1.13,12.54,3.04,3.4,1.92,5.56,4.59,5.56,7.65s-2.31,5.32-5.93,6.88c-3.61,1.55-8.4,2.3-13.06,2.3s-9.15-.55-12.44-1.71c-3.33-1.17-5.26-2.9-5.26-5.13,0-1.16.35-1.98.86-2.58.52-.62,1.22-1.04,1.96-1.39.36-.17.72-.32,1.07-.46h.03c.35-.16.7-.3,1-.45.56-.28,1.17-.69,1.17-1.42,0-.55-.26-.96-.6-1.27-.29-.27-.65-.49-.98-.68-.04-.02-.07-.04-.11-.07-.78-.47-1.31-.86-1.31-1.6Z"/>
  <g>
    <path class="cls-4" d="m41.76,27.98c0-2.16-3.34-3.56-8.95-3.45-3.56,0-5.51,1.19-6.14,2.16-2.26,3.45,2.37,5.18,6.79,5.07,4.42-.11,8.3-.65,8.3-3.78Z"/>
    <path class="cls-4" d="m18.95,21.78c0-.61-.97-1.01-2.6-.98-1.03,0-1.6.34-1.79.61-.66.98.69,1.47,1.98,1.44,1.29-.03,2.41-.18,2.41-1.07Z"/>
    <path class="cls-5" d="m34.06,28.96c0-.71-.89-1.17-2.38-1.13-.94,0-1.46.39-1.63.71-.6,1.13.63,1.7,1.8,1.66,1.17-.04,2.2-.21,2.2-1.24Z"/>
    <path class="cls-5" d="m37.08,28.99c0-.3-.38-.5-1.01-.48-.4,0-.62.17-.69.3-.26.48.27.73.77.71.5-.02.94-.09.94-.53Z"/>
    <path class="cls-5" d="m31.27,26.29c0-.3-.38-.5-1.01-.48-.4,0-.62.17-.69.3-.26.48.27.73.77.71.5-.02.94-.09.94-.53Z"/>
  </g>
  <g class="cls-2">
    <path class="cls-1" d="m8.63,45.83c.5,2.99-.66,5.56-.72,6.17h4.31c-.03-1.25-.21-4.77-1.57-8.15-1.1-2.73-3.05-3.83-4.18-4.2.36.77,1.65,3.18,2.16,6.17Z"/>
    <path class="cls-1" d="m18.7,47.35c0,2.8,1.2,4.42,1.2,4.65h-5.51c.04-1.13,0-3.19.96-5.73,1.08-2.86,3.83-5.25,4.79-5.85-.35.76-1.44,4.73-1.44,6.92Z"/>
    <path class="cls-1" d="m15.55,42.23c-.56,4.46.09,8.31.09,9.77h-4.13c.03-1.86-.09-6.15.99-9.94,1.47-5.18,3.98-9.15,4.76-9.35-.26,1.26-1.15,5.07-1.71,9.53Z"/>
  </g>
  <g>
    <path class="cls-7" d="m19.1,48.24c.3,1.82-.4,3.37-.44,3.75h2.62c-.02-.76-.12-2.89-.95-4.94-.67-1.66-1.85-2.32-2.54-2.55.22.47,1,1.93,1.31,3.75Z"/>
    <path class="cls-7" d="m25.2,49.16c0,1.7.73,2.68.73,2.82h-3.34c.02-.68,0-1.94.58-3.47.65-1.74,2.33-3.19,2.91-3.55-.21.46-.87,2.87-.87,4.2Z"/>
    <path class="cls-7" d="m23.29,46.06c-.34,2.7.05,5.04.05,5.92h-2.51c.02-1.13-.05-3.73.6-6.03.89-3.14,2.41-5.55,2.89-5.67-.16.76-.7,3.08-1.04,5.78Z"/>
  </g>
</svg>