<?xml version="1.0" encoding="UTF-8"?>
<svg id="Layer_1" data-name="Layer 1" xmlns="http://www.w3.org/2000/svg" viewBox="0 0 56 56">
  <defs>
    <style>
      .cls-1 {
        fill: #f47920;
      }

      .cls-1, .cls-2 {
        fill-rule: evenodd;
      }

      .cls-3 {
        fill: #54ace2;
      }

      .cls-3, .cls-4, .cls-5, .cls-6, .cls-7 {
        isolation: isolate;
      }

      .cls-4 {
        fill: #7cc3f7;
      }

      .cls-5 {
        fill: #f29a68;
        opacity: .3;
      }

      .cls-8 {
        fill: none;
      }

      .cls-2 {
        fill: #d36318;
      }

      .cls-6 {
        fill: #217dc1;
      }

      .cls-7 {
        fill: #1775af;
      }
    </style>
  </defs>
  <rect class="cls-8" y=".14" width="56" height="56" rx=".3" ry=".3"/>
  <g>
    <circle class="cls-5" cx="27.99" cy="23" r="15"/>
    <circle class="cls-5" cx="27.99" cy="23" r="12"/>
    <circle class="cls-5" cx="27.99" cy="23" r="18"/>
  </g>
  <path class="cls-1" d="m30.09,28c.92-1.49,1.18-3.07.78-4.74-.11-.45-.72-.41-.97-.02-.06.09-.11.17-.17.25-.25.31-.6,0-.55-.39.24-1.77-.37-3.65-1.85-5.65-.04,2.44-.57,4.22-1.61,5.33-1.42,1.53-1.41,3.27.05,5.2-6.05-3.53-6.9-8.26-2.56-14.19.2,1.07.61,1.83,1.24,2.28.29.21.63-.09.56-.45-.84-4.9.4-9.1,3.72-12.61.02,8.2,2.32,8.93,5.22,12.59,3.13,4.39,1.29,9.46-3.87,12.41Z"/>
  <rect class="cls-4" x="20" y="41" width="16" height="11"/>
  <rect class="cls-4" x="16.99" y="30" width="22" height="9" rx=".4" ry=".4"/>
  <path class="cls-3" d="m19,39h18v1.6c0,.22-.18.4-.4.4h-17.2c-.22,0-.4-.18-.4-.4v-1.6h0Z"/>
  <path class="cls-6" d="m17.4,30h5.6v9h-5.6c-.22,0-.4-.18-.4-.4v-8.2c0-.22.18-.4.4-.4Z"/>
  <rect class="cls-6" x="20" y="41.03" width="6" height="11"/>
  <path class="cls-7" d="m19,39h6v2h-5.6c-.22,0-.4-.18-.4-.4v-1.6h0Z"/>
  <path class="cls-2" d="m28,16.54c-3.36,0-6.24,2.08-7.42,5.02.36,2.45,2.09,4.59,5.2,6.41-1.46-1.93-1.47-3.66-.05-5.2,1.03-1.11,1.57-2.89,1.61-5.33,1.47,2,2.09,3.89,1.85,5.65-.05.39.3.7.55.39.06-.08.12-.16.17-.25.24-.39.86-.42.97.02.4,1.68.14,3.26-.78,4.74,2.94-1.67,4.8-4.04,5.28-6.57-1.21-2.87-4.06-4.88-7.37-4.88Z"/>
</svg>