<?xml version="1.0" encoding="UTF-8"?>
<svg id="Layer_1" data-name="Layer 1" xmlns="http://www.w3.org/2000/svg" viewBox="0 0 56 56">
  <defs>
    <style>
      .cls-1 {
        fill: #fcb595;
        opacity: .3;
      }

      .cls-1, .cls-2, .cls-3, .cls-4, .cls-5, .cls-6, .cls-7 {
        isolation: isolate;
      }

      .cls-3, .cls-8 {
        fill: #7cc3f7;
      }

      .cls-9 {
        fill: #e6e7e8;
        fill-rule: evenodd;
      }

      .cls-4 {
        fill: #1268b3;
      }

      .cls-10 {
        fill: #f47920;
      }

      .cls-5 {
        fill: #fff;
      }

      .cls-6 {
        fill: #f29a68;
      }

      .cls-11, .cls-7 {
        fill: none;
      }

      .cls-7 {
        stroke: #1268b3;
        stroke-miterlimit: 10;
        stroke-width: 2px;
      }
    </style>
  </defs>
  <rect class="cls-11" y="0" width="56" height="56" rx=".3" ry=".3"/>
  <rect class="cls-11" y="0" width="56" height="56" rx=".3" ry=".3"/>
  <g class="cls-2">
    <circle class="cls-1" cx="16.63" cy="16.59" r="10.49"/>
    <circle class="cls-1" cx="16.63" cy="16.59" r="8.39"/>
    <circle class="cls-1" cx="16.63" cy="16.59" r="12.59"/>
  </g>
  <path class="cls-10" d="m18.06,13.88l1.16-3.32c.11-.32-.13-.66-.47-.66h-3.57c-.21,0-.4.13-.47.33l-2.71,7.34c-.12.33.12.67.47.67h2.25c.28,0,.5.22.5.5v4.04c0,.5.64.69.92.28l5.11-7.73c.22-.33-.02-.78-.42-.78h-2.28c-.34,0-.59-.34-.47-.66Z"/>
  <path class="cls-7" d="m16.63,29.17v13.11c0,.91.84,1.64,1.87,1.64h7.48"/>
  <rect class="cls-3" x="25.98" y="30" width="24" height="20" rx=".37" ry=".37"/>
  <path class="cls-3" d="m44.98,30h-6l.79-10.92c.01-.16.19-.28.4-.28h3.62c.21,0,.39.12.4.28l.8,10.92Z"/>
  <g class="cls-2">
    <path class="cls-8" d="m36.98,30h-6l.79-10.92c.01-.16.19-.28.4-.28h3.62c.21,0,.39.12.4.28l.8,10.92Z"/>
  </g>
  <circle class="cls-6" cx="41.52" cy="13.43" r="2.25"/>
  <circle class="cls-10" cx="33.92" cy="15.12" r="2"/>
  <circle class="cls-6" cx="35.03" cy="10.28" r="1.5"/>
  <circle class="cls-10" cx="33.7" cy="6.81" r=".9"/>
  <circle class="cls-10" cx="40.2" cy="8.55" r="1.5"/>
  <circle class="cls-6" cx="42.2" cy="4.91" r="1"/>
  <path class="cls-4" d="m38.86,28h6.2c.22,0,.4.18.4.4v1.6h-7v-1.6c0-.22.18-.4.4-.4Z"/>
  <path class="cls-4" d="m30.88,28h6.2c.22,0,.4.18.4.4v1.6h-7v-1.6c0-.22.18-.4.4-.4Z"/>
  <rect class="cls-4" x="14.63" y="29.17" width="4" height="2" rx=".3" ry=".3"/>
  <g>
    <rect class="cls-5" x="28.98" y="33" width="18" height="5" rx=".45" ry=".45"/>
    <polygon class="cls-9" points="43.76 36.24 43.16 36.24 44.61 33 45.21 33 43.76 36.24"/>
    <polygon class="cls-9" points="41.94 38 41.01 38 43.26 33 44.19 33 41.94 38"/>
  </g>
</svg>