<?xml version="1.0" encoding="UTF-8"?>
<svg id="Layer_1" data-name="Layer 1" xmlns="http://www.w3.org/2000/svg" viewBox="0 0 56 56">
  <defs>
    <style>
      .cls-1 {
        fill: #fff;
      }

      .cls-2 {
        fill: #f47920;
        fill-rule: evenodd;
      }

      .cls-3 {
        fill: #fcb595;
      }

      .cls-3, .cls-4, .cls-5, .cls-6, .cls-7, .cls-8 {
        isolation: isolate;
      }

      .cls-4 {
        fill: #54ace2;
      }

      .cls-5 {
        fill: #7cc3f7;
      }

      .cls-6 {
        fill: #1268b3;
      }

      .cls-7 {
        fill: #f29a68;
      }

      .cls-8 {
        fill: #9fd5f7;
      }

      .cls-9 {
        fill: none;
      }
    </style>
  </defs>
  <rect class="cls-9" y="0" width="56" height="56" rx=".3" ry=".3"/>
  <rect class="cls-3" x="4" y="28" width="48" height="22"/>
  <ellipse class="cls-7" cx="20.61" cy="42.48" rx="14" ry="5.06"/>
  <ellipse class="cls-7" cx="39.78" cy="29.85" rx="10.85" ry="2.63"/>
  <g>
    <g>
      <path class="cls-5" d="m48.07,10.57c0-1.18-2.1-1.66-8.4-1.42-6.77.25-9.8,1.66-9.8,2.61,0,.76,1.4,1.42,1.4,1.42-.31,1.58-.7,5.21-.7,7.11s.39,5.53.7,7.11c0,0-1.4.71-1.4,1.66,0,1.18,1.17,1.89,9.8,1.89s9.8-1.18,9.8-1.89c0-.57-.93-1.34-1.4-1.66,0,0,.47-3.9.47-6.93s-.78-6.65-1.4-7.99c.31-.39.93-1.33.93-1.89Z"/>
      <g>
        <path class="cls-1" d="m35.15,16.99s2.45-.17,3.98,2.06.54,4.5.54,4.5c0,0-2.31.38-3.99-2.05-1.57-2.28-.54-4.5-.54-4.5Z"/>
        <path class="cls-1" d="m44.19,16.99s-2.45-.17-3.98,2.06-.54,4.5-.54,4.5c0,0,2.31.38,3.99-2.05,1.57-2.28.54-4.5.54-4.5Z"/>
        <path class="cls-6" d="m39.67,15.56s2.1,1.29,2.1,4-2.1,4-2.1,4c0,0-2.11-1.04-2.11-4,0-2.79,2.11-4,2.11-4Z"/>
      </g>
    </g>
    <g>
      <path class="cls-2" d="m29.36,14.3s0-.05,0-.07c0-3.17-2.57-5.73-5.74-5.73-2.29,0-4.27,1.34-5.19,3.28-.57-.27-1.2-.41-1.87-.41-1.91,0-3.53,1.21-4.15,2.89-1.77.22-3.14,1.73-3.14,3.55,0,1.98,1.61,3.58,3.59,3.58h15.8c1.98,0,3.59-1.6,3.59-3.58,0-1.73-1.23-3.18-2.87-3.51Z"/>
      <path class="cls-8" d="m7.53,28.48c0-4.97.75-7.38.75-7.38l25.36.43c.46,2.59.42,4.71.42,7.82s-.85,6.96-1.31,9.55c0,0,.88.94.88,2.49,0,1.94-4.35,3.11-13.05,3.11-12.65,0-13.05-1.94-13.05-3.11,0-1.63.86-2.49.86-2.49,0,0-.86-5.45-.86-10.42Z"/>
      <path class="cls-4" d="m8.24,17.91c.08-.42.45-.72.88-.7l23.82.68c.35,0,.65.22.78.55l.75,1.86c.23.57-.19,1.19-.81,1.19H8.6c-.55,0-.96-.5-.85-1.03l.49-2.54Z"/>
      <g>
        <path class="cls-4" d="m13.65,27.23s4.06-.27,6.59,3.35.9,7.33.9,7.33c0,0-3.82.62-6.6-3.34-2.61-3.72-.89-7.33-.89-7.33Z"/>
        <path class="cls-4" d="m28.62,27.23s-4.06-.27-6.59,3.35c-2.54,3.62-.9,7.33-.9,7.33,0,0,3.82.62,6.6-3.34,2.61-3.72.89-7.33.89-7.33Z"/>
        <path class="cls-6" d="m21.14,24.9s3.48,2.1,3.48,6.51-3.48,6.51-3.48,6.51c0,0-3.49-1.68-3.49-6.51,0-4.54,3.49-6.51,3.49-6.51Z"/>
      </g>
    </g>
  </g>
</svg>