<?xml version="1.0" encoding="UTF-8"?>
<svg id="Layer_1" data-name="Layer 1" xmlns="http://www.w3.org/2000/svg" viewBox="0 0 56 56">
  <defs>
    <style>
      .cls-1 {
        fill: #1268b3;
      }

      .cls-1, .cls-2, .cls-3, .cls-4 {
        fill-rule: evenodd;
      }

      .cls-1, .cls-3, .cls-4 {
        isolation: isolate;
      }

      .cls-2 {
        fill: #f47920;
      }

      .cls-3 {
        fill: #7cc3f7;
      }

      .cls-5 {
        fill: none;
      }

      .cls-4 {
        fill: #f29a68;
      }
    </style>
  </defs>
  <rect class="cls-5" y="0" width="56" height="56" rx=".3" ry=".3"/>
  <rect class="cls-5" y="0" width="56" height="56" rx=".3" ry=".3"/>
  <path class="cls-3" d="m9.88,11.33c-2.22.39-3.9,2.16-3.9,4.3,0,2.42,2.15,4.38,4.8,4.38h14.4c2.65,0,4.8-1.96,4.8-4.38s-2.15-4.38-4.8-4.38h-1.99c-.47-2.97-3.27-5.25-6.65-5.25s-6.23,2.32-6.66,5.33Z"/>
  <path class="cls-1" d="m21.68,33.74c1.48.28,2.6,1.58,2.6,3.14,0,1.77-1.43,3.2-3.2,3.2h-9.6c-1.77,0-3.2-1.43-3.2-3.2s1.43-3.2,3.2-3.2h1.33c.31-2.17,2.18-3.84,4.43-3.84s4.16,1.7,4.44,3.9Z"/>
  <path class="cls-1" d="m40.25,8.26c-.31-2.36-2.34-4.19-4.81-4.19s-4.46,1.79-4.8,4.12h-2.13c-1.91,0-3.46,1.54-3.46,3.44s1.55,3.44,3.46,3.44h11.08c1.91,0,3.46-1.54,3.46-3.44,0-1.68-1.21-3.07-2.81-3.38Z"/>
  <path class="cls-2" d="m37.84,24.79c-5.7-.89-11.5-1.87-17.21-2.76-2.16-.39-3.34,2.46-1.57,3.74l10.32,7.48-4.03,4.63-4.82-1.38c-2.16-.59-3.54,2.27-1.67,3.64l3.93,2.66c-.69,1.58-1.08,2.66-1.08,2.66-.2.49.29.98.79.79,0,0,1.08-.39,2.65-1.08l2.65,3.94c1.38,1.87,4.23.49,3.64-1.67l-1.38-4.83,4.62-4.04,7.47,10.34c1.28,1.77,4.13.59,3.74-1.58-.88-5.71-1.87-11.52-2.75-17.24,12.09-12.21,6.78-17.24-5.31-5.32h0Z"/>
  <path class="cls-4" d="m45.88,47.29c-.88-5.71-1.87-11.51-2.75-17.22l-8.45,8.46,7.46,10.33c1.28,1.77,4.13.59,3.74-1.58Z"/>
  <path class="cls-4" d="m20.61,22.07c5.71.88,11.51,1.87,17.22,2.75l-8.46,8.45-10.33-7.46c-1.77-1.28-.59-4.13,1.58-3.74Z"/>
</svg>