<?xml version="1.0" encoding="UTF-8"?>
<svg id="Layer_1" data-name="Layer 1" xmlns="http://www.w3.org/2000/svg" viewBox="0 0 56 56">
  <defs>
    <style>
      .cls-1 {
        fill: #fff;
      }

      .cls-2, .cls-3, .cls-4, .cls-5, .cls-6, .cls-7, .cls-8 {
        isolation: isolate;
      }

      .cls-2, .cls-5 {
        fill: #7cc3f7;
      }

      .cls-2, .cls-8 {
        fill-rule: evenodd;
      }

      .cls-4, .cls-8 {
        fill: #54ace2;
      }

      .cls-6, .cls-9 {
        fill: #1268b3;
      }

      .cls-7 {
        fill: #f29a68;
      }

      .cls-10 {
        fill: none;
      }
    </style>
  </defs>
  <rect class="cls-10" y="0" width="56" height="56" rx=".3" ry=".3"/>
  <rect class="cls-10" y="0" width="56" height="56" rx=".3" ry=".3"/>
  <ellipse class="cls-7" cx="28" cy="41.54" rx="18" ry="6"/>
  <g class="cls-3">
    <path class="cls-9" d="m35.32,40.7l5.33-2.97,6.39,1.19-5.33,4.16-6.39-2.38Z"/>
    <path class="cls-4" d="m5.83,35.29l2.91-2.27,3.49,1.3-2.91,2.27-3.49-1.3Z"/>
    <path class="cls-4" d="m42.77,39l2.91-1.7,3.49.97-2.91,1.7-3.49-.97Z"/>
    <path class="cls-9" d="m39.05,30.69l2.91-1,3.49.57-2.91,1-3.49-.57Z"/>
    <path class="cls-4" d="m16.52,43.7l3.26-2.38-7.46-.92-5.33,2.51,9.52.79Z"/>
    <path class="cls-5" d="m26.21,52l-1.91-3.44,5.73-.69,4.45,3.44-8.27.69Z"/>
  </g>
  <g>
    <path class="cls-2" d="m38.66,41.54h-21.39c-.2,0-.37-.15-.4-.36l-3.88-29.17c-.03-.25.15-.47.4-.47h29.2c.24,0,.43.22.4.47l-3.93,29.17c-.03.2-.2.36-.4.36Z"/>
    <g>
      <rect class="cls-1" x="26.95" y="15.43" width="2" height="20" rx="1" ry="1"/>
      <rect class="cls-1" x="34.05" y="15.43" width="2" height="20" rx="1" ry="1" transform="translate(3.36 -4.08) rotate(7)"/>
      <rect class="cls-1" x="19.95" y="15.43" width="2" height="20" rx="1" ry="1" transform="translate(-2.94 2.74) rotate(-7)"/>
    </g>
    <path class="cls-8" d="m42.6,11.72H13.4c-.24,0-.43.22-.4.47l.2,1.53h29.58l.21-1.53c.03-.25-.15-.47-.4-.47Z"/>
    <rect class="cls-6" x="11" y="8" width="34" height="4" rx=".8" ry=".8"/>
    <path class="cls-6" d="m28,4h0c2.21,0,4,1.79,4,4h-8c0-2.21,1.79-4,4-4Z"/>
  </g>
</svg>