<svg width="38" height="32" viewBox="0 0 38 32" fill="none" xmlns="http://www.w3.org/2000/svg">
<rect x="0.499996" y="0.5" width="37" height="31" rx="15.5" fill="white"/>
<path d="M23.4082 22C23.148 22 22.9297 21.9005 22.7534 21.7014C22.577 21.5024 22.4892 21.2563 22.4898 20.9633C22.4898 20.6695 22.578 20.4232 22.7543 20.2241C22.9306 20.0251 23.1486 19.9259 23.4082 19.9266H24.8775L20.102 14.5875L17.0714 18.0086C16.9949 18.095 16.8994 18.1641 16.7849 18.216C16.6704 18.2678 16.5516 18.2937 16.4286 18.2937C16.3061 18.2937 16.1913 18.2678 16.0842 18.216C15.977 18.1641 15.8775 18.095 15.7857 18.0086L10.2525 11.7106C10.0842 11.5205 10 11.2873 10 11.0108C10 10.7343 10.0918 10.4924 10.2755 10.2851C10.4439 10.095 10.6582 10 10.9184 10C11.1786 10 11.3929 10.095 11.5612 10.2851L16.4286 15.7797L19.4592 12.3585C19.551 12.2549 19.6505 12.1816 19.7576 12.1387C19.8648 12.0959 19.9796 12.0741 20.102 12.0734C20.2245 12.0734 20.3393 12.0952 20.4464 12.1387C20.5536 12.1823 20.6531 12.2555 20.7449 12.3585L26.1633 18.4752V16.8164C26.1633 16.5227 26.2514 16.2766 26.4277 16.0783C26.6041 15.8799 26.822 15.7804 27.0816 15.7797C27.3418 15.7797 27.5601 15.8792 27.7364 16.0783C27.9127 16.2773 28.0006 16.5234 28 16.8164V20.9633C28 21.257 27.9118 21.5034 27.7355 21.7025C27.5592 21.9015 27.3412 22.0007 27.0816 22H23.4082Z" fill="#F57921"/>
<rect x="0.499996" y="0.5" width="37" height="31" rx="15.5" stroke="#F9E0CE"/>
</svg>
