<?xml version="1.0" encoding="UTF-8"?>
<svg id="Layer_1" data-name="Layer 1" xmlns="http://www.w3.org/2000/svg" xmlns:xlink="http://www.w3.org/1999/xlink" viewBox="0 0 56 56">
  <defs>
    <style>
      .cls-1, .cls-2 {
        fill: #f29a68;
      }

      .cls-3, .cls-4 {
        fill: #fff;
      }

      .cls-5 {
        fill: #54ace2;
      }

      .cls-5, .cls-6, .cls-7, .cls-2, .cls-8, .cls-4, .cls-9 {
        isolation: isolate;
      }

      .cls-6 {
        fill: #7cc3f7;
      }

      .cls-7 {
        fill: #5eb5ea;
      }

      .cls-2 {
        opacity: .3;
      }

      .cls-8 {
        fill: #1268b3;
      }

      .cls-10 {
        fill: #f47920;
      }

      .cls-11 {
        clip-path: url(#clippath);
      }

      .cls-9 {
        fill: #9fd5f7;
      }

      .cls-12 {
        fill: none;
      }
    </style>
    <clipPath id="clippath">
      <rect class="cls-12" x="69.22" y="26" width="15.34" height="26.07"/>
    </clipPath>
  </defs>
  <rect class="cls-12" y=".14" width="56" height="56" rx=".3" ry=".3"/>
  <rect class="cls-9" x="4" y="36.5" width="48" height="15.5"/>
  <path class="cls-6" d="m34.13,45.61c8.14,0,13.93-2.39,17.87-4.98v-4.13H10.54c3.87,3.34,10.93,9.11,23.59,9.11Z"/>
  <g>
    <circle class="cls-2" cx="40.99" cy="15" r="9.17"/>
    <circle class="cls-2" cx="40.99" cy="15" r="7.33"/>
    <circle class="cls-2" cx="40.99" cy="15" r="11"/>
  </g>
  <g>
    <circle class="cls-10" cx="8.06" cy="32.27" r="2"/>
    <circle class="cls-1" cx="5.58" cy="28.14" r="1.5"/>
    <circle class="cls-10" cx="8.3" cy="25.35" r="1"/>
    <circle class="cls-1" cx="6.3" cy="22.81" r="1"/>
  </g>
  <g>
    <rect class="cls-8" x="11.75" y="32" width="2" height="2"/>
    <path class="cls-6" d="m13.29,34h38.05s2.35-5.66-1.81-8.02c-3.49-1.98-7.43-1.3-7.43-1.3,0,0,.31-7.67-11.32-7.67s-11.88,7.67-11.88,7.67c0,0-4.17,0-5.25,2.24-1.2,2.47-.36,7.09-.36,7.09Z"/>
    <path class="cls-3" d="m21.38,24.67h8.61v-5.66s-3.19-.39-5.83,1.38c-2.32,1.55-2.77,4.28-2.77,4.28Z"/>
    <path class="cls-3" d="m39.84,24.67h-8.61v-5.66s3.19-.39,5.83,1.38c2.32,1.55,2.77,4.28,2.77,4.28Z"/>
    <path class="cls-7" d="m49.52,25.98c-.07-.04-.14-.07-.21-.11.45,1.08,1.45,4.27-1.92,5.54-4.08,1.54-18.42,1.91-27.11.85-5.68-.69-6.6-3.58-6.56-5.5-.03.05-.06.1-.09.15-1.2,2.47-.36,7.09-.36,7.09h38.05s2.35-5.66-1.81-8.02Z"/>
    <g>
      <ellipse class="cls-8" cx="21.88" cy="34" rx="4.99" ry="5"/>
      <ellipse class="cls-4" cx="21.88" cy="34" rx="2.5" ry="2.5"/>
    </g>
    <g>
      <ellipse class="cls-8" cx="42.02" cy="34" rx="4.99" ry="5"/>
      <ellipse class="cls-4" cx="42.02" cy="34" rx="2.5" ry="2.5"/>
    </g>
  </g>
  <g class="cls-11">
    <g>
      <polygon class="cls-6" points="67.44 27.85 54.39 37.19 54.34 37.19 54.34 52.15 80.5 52.15 80.5 37.19 67.44 27.85"/>
      <polygon class="cls-5" points="54.39 37.56 54.34 37.56 54.34 39.53 67.37 29.6 80.5 39.61 80.5 37.56 67.44 28.22 54.39 37.56"/>
      <polygon class="cls-8" points="67.42 26 52 37.43 53.06 39.08 67.42 28.14 81.78 39.08 82.84 37.43 67.42 26"/>
    </g>
  </g>
</svg>